<svg width="138" height="130" viewBox="0 0 138 130" fill="none" xmlns="http://www.w3.org/2000/svg">
<circle cx="33.5" cy="63.5" r="20.5" fill="#E6375A"/>
<path fill-rule="evenodd" clip-rule="evenodd" d="M108 0C124.569 0 138 13.4315 138 30V34.5505C135.115 33.8889 131.964 34.716 129.765 37.0069L92.5688 75.7561L98.3 39.3912C98.3385 39.1467 98.3665 38.9029 98.3842 38.6604C98.6083 37.1427 98.434 35.5464 97.7971 34.0284C95.9369 29.5945 90.8344 27.508 86.4004 29.3683L65.1831 38.27C57.7626 28.9638 46.3278 23 33.5 23C19.5734 23 7.28866 30.0292 0 40.7333V30C0 13.4315 13.4315 0 30 0H108ZM0 86.2667V99.438C0 116.007 13.4315 129.438 30 129.438H108C124.569 129.438 138 116.007 138 99.438V53.5726L85.9819 107.763C82.6521 111.232 77.1407 111.344 73.6719 108.015C71.7663 106.185 70.8735 103.698 71.0078 101.252C71.015 100.852 71.0498 100.447 71.1139 100.041L78.7715 51.4521L72.863 53.931C73.6062 56.999 74 60.2035 74 63.5C74 85.8675 55.8675 104 33.5 104C19.5734 104 7.28866 96.9708 0 86.2667Z" fill="#D9D9D9"/>
</svg>
